<?xml version="1.0" encoding="UTF-8"?>
<svg version="1.1" xmlns="http://www.w3.org/2000/svg" width="512" height="512">
<path d="M0 0 C0.81577011 -0.00701431 1.63154022 -0.01402863 2.47203064 -0.02125549 C5.09208767 -0.03866622 7.71191848 -0.0451085 10.33203125 -0.046875 C11.67669464 -0.04788712 11.67669464 -0.04788712 13.04852295 -0.04891968 C26.63545523 -0.03266991 39.79259858 0.49146838 53.14453125 3.203125 C54.47460205 3.46053467 54.47460205 3.46053467 55.83154297 3.72314453 C98.66825699 12.14892815 136.7661766 31.83797541 168.93359375 61.21484375 C170.69533208 62.7991632 172.47541912 64.29703498 174.33203125 65.765625 C177.28187083 68.32215264 179.72958399 71.03321984 182.25 74.00390625 C183.51120801 75.46794771 184.80607668 76.90366132 186.1328125 78.30859375 C218.14981913 112.31568854 237.3049142 158.25698681 243.14453125 204.203125 C243.2318602 204.88628281 243.31918915 205.56944061 243.40916443 206.27330017 C244.04174793 211.55007046 244.31687654 216.74632588 244.34765625 222.05859375 C244.35467056 222.87436386 244.36168488 223.69013397 244.36891174 224.53062439 C244.38632247 227.15068142 244.39276475 229.77051223 244.39453125 232.390625 C244.39520599 233.28706726 244.39588074 234.18350952 244.39657593 235.1071167 C244.38032616 248.69404898 243.85618787 261.85119233 241.14453125 275.203125 C240.9729248 276.08983887 240.80131836 276.97655273 240.62451172 277.89013672 C232.4656924 319.36960332 213.58824792 357.18368477 185.47265625 388.70751953 C184.26542137 390.06699028 183.07876657 391.44466684 181.89453125 392.82421875 C178.25750753 397.03663099 174.4948052 400.82875964 170.23828125 404.4140625 C168.81112315 405.63353715 167.41581646 406.89105352 166.05078125 408.1796875 C153.84627176 419.67366048 139.71214915 428.98913266 125.14453125 437.203125 C124.55671875 437.54150391 123.96890625 437.87988281 123.36328125 438.22851562 C112.728856 444.32698537 101.61792953 448.92279406 90.14453125 453.203125 C89.48485352 453.45191406 88.82517578 453.70070313 88.14550781 453.95703125 C76.77272266 458.18932769 65.02661432 460.84588312 53.14453125 463.203125 C52.32259277 463.37118652 51.5006543 463.53924805 50.65380859 463.71240234 C-8.64018648 475.33513345 -71.22884691 459.24476721 -120.85546875 426.203125 C-129.1482229 420.54535093 -136.79482586 414.0443706 -144.37744141 407.48144531 C-145.72307647 406.3176288 -147.07599709 405.16224954 -148.4296875 404.0078125 C-152.65373425 400.35031871 -156.46683782 396.57033523 -160.06640625 392.296875 C-161.2858809 390.8697169 -162.54339727 389.47441021 -163.83203125 388.109375 C-175.32600423 375.90486551 -184.64147641 361.7707429 -192.85546875 347.203125 C-193.19384766 346.6153125 -193.53222656 346.0275 -193.88085938 345.421875 C-199.97932912 334.78744975 -204.57513781 323.67652328 -208.85546875 312.203125 C-209.22865234 311.2136084 -209.22865234 311.2136084 -209.609375 310.20410156 C-213.84167144 298.83131641 -216.49822687 287.08520807 -218.85546875 275.203125 C-219.02353027 274.38118652 -219.1915918 273.55924805 -219.36474609 272.71240234 C-224.43816291 246.83009044 -224.09809734 217.01731668 -218.85546875 191.203125 C-218.59805908 189.8730542 -218.59805908 189.8730542 -218.33544922 188.51611328 C-210.1766299 147.03664668 -191.29918542 109.22256523 -163.18359375 77.69873047 C-161.97635887 76.33925972 -160.78970407 74.96158316 -159.60546875 73.58203125 C-155.96844503 69.36961901 -152.2057427 65.57749036 -147.94921875 61.9921875 C-146.52206065 60.77271285 -145.12675396 59.51519648 -143.76171875 58.2265625 C-109.75659285 26.20118708 -63.8050545 7.04318022 -17.85546875 1.203125 C-17.17231094 1.11579605 -16.48915314 1.0284671 -15.78529358 0.93849182 C-10.50852329 0.30590832 -5.31226787 0.03077971 0 0 Z " fill="#32326F" transform="translate(244.85546875,22.796875)"/>
<path d="M0 0 C0.81577011 -0.00701431 1.63154022 -0.01402863 2.47203064 -0.02125549 C5.09208767 -0.03866622 7.71191848 -0.0451085 10.33203125 -0.046875 C11.67669464 -0.04788712 11.67669464 -0.04788712 13.04852295 -0.04891968 C26.63545523 -0.03266991 39.79259858 0.49146838 53.14453125 3.203125 C54.47460205 3.46053467 54.47460205 3.46053467 55.83154297 3.72314453 C98.66825699 12.14892815 136.7661766 31.83797541 168.93359375 61.21484375 C170.69533208 62.7991632 172.47541912 64.29703498 174.33203125 65.765625 C177.28187083 68.32215264 179.72958399 71.03321984 182.25 74.00390625 C183.51120801 75.46794771 184.80607668 76.90366132 186.1328125 78.30859375 C218.14981913 112.31568854 237.3049142 158.25698681 243.14453125 204.203125 C243.2318602 204.88628281 243.31918915 205.56944061 243.40916443 206.27330017 C244.04174793 211.55007046 244.31687654 216.74632588 244.34765625 222.05859375 C244.35467056 222.87436386 244.36168488 223.69013397 244.36891174 224.53062439 C244.38632247 227.15068142 244.39276475 229.77051223 244.39453125 232.390625 C244.39520599 233.28706726 244.39588074 234.18350952 244.39657593 235.1071167 C244.38032616 248.69404898 243.85618787 261.85119233 241.14453125 275.203125 C240.9729248 276.08983887 240.80131836 276.97655273 240.62451172 277.89013672 C232.4656924 319.36960332 213.58824792 357.18368477 185.47265625 388.70751953 C184.26542137 390.06699028 183.07876657 391.44466684 181.89453125 392.82421875 C178.25750753 397.03663099 174.4948052 400.82875964 170.23828125 404.4140625 C168.81112315 405.63353715 167.41581646 406.89105352 166.05078125 408.1796875 C153.84627176 419.67366048 139.71214915 428.98913266 125.14453125 437.203125 C124.55671875 437.54150391 123.96890625 437.87988281 123.36328125 438.22851562 C112.728856 444.32698537 101.61792953 448.92279406 90.14453125 453.203125 C89.48485352 453.45191406 88.82517578 453.70070313 88.14550781 453.95703125 C76.77272266 458.18932769 65.02661432 460.84588312 53.14453125 463.203125 C52.32259277 463.37118652 51.5006543 463.53924805 50.65380859 463.71240234 C-8.64018648 475.33513345 -71.22884691 459.24476721 -120.85546875 426.203125 C-129.1482229 420.54535093 -136.79482586 414.0443706 -144.37744141 407.48144531 C-145.72307647 406.3176288 -147.07599709 405.16224954 -148.4296875 404.0078125 C-152.65373425 400.35031871 -156.46683782 396.57033523 -160.06640625 392.296875 C-161.2858809 390.8697169 -162.54339727 389.47441021 -163.83203125 388.109375 C-175.32600423 375.90486551 -184.64147641 361.7707429 -192.85546875 347.203125 C-193.19384766 346.6153125 -193.53222656 346.0275 -193.88085938 345.421875 C-199.97932912 334.78744975 -204.57513781 323.67652328 -208.85546875 312.203125 C-209.22865234 311.2136084 -209.22865234 311.2136084 -209.609375 310.20410156 C-213.84167144 298.83131641 -216.49822687 287.08520807 -218.85546875 275.203125 C-219.02353027 274.38118652 -219.1915918 273.55924805 -219.36474609 272.71240234 C-224.43816291 246.83009044 -224.09809734 217.01731668 -218.85546875 191.203125 C-218.59805908 189.8730542 -218.59805908 189.8730542 -218.33544922 188.51611328 C-210.1766299 147.03664668 -191.29918542 109.22256523 -163.18359375 77.69873047 C-161.97635887 76.33925972 -160.78970407 74.96158316 -159.60546875 73.58203125 C-155.96844503 69.36961901 -152.2057427 65.57749036 -147.94921875 61.9921875 C-146.52206065 60.77271285 -145.12675396 59.51519648 -143.76171875 58.2265625 C-109.75659285 26.20118708 -63.8050545 7.04318022 -17.85546875 1.203125 C-17.17231094 1.11579605 -16.48915314 1.0284671 -15.78529358 0.93849182 C-10.50852329 0.30590832 -5.31226787 0.03077971 0 0 Z M-10.515625 32.28515625 C-13.30807018 36.28250489 -14.13257668 39.35373624 -13.85546875 44.203125 C-14.76425781 44.14898437 -15.67304688 44.09484375 -16.609375 44.0390625 C-22.15872954 44.04741786 -27.43329915 45.51117761 -32.79296875 46.828125 C-33.90961914 47.10172852 -35.02626953 47.37533203 -36.17675781 47.65722656 C-45.04600307 49.89056354 -53.48551685 52.52426193 -61.85546875 56.203125 C-62.65903809 56.55358887 -63.46260742 56.90405273 -64.29052734 57.26513672 C-106.21097067 75.79615463 -138.69928937 106.63497114 -159.85546875 147.203125 C-160.32678223 148.10466309 -160.32678223 148.10466309 -160.80761719 149.02441406 C-169.21305202 165.37778408 -174.55166457 183.15927142 -177.85546875 201.203125 C-178.08105469 202.37488281 -178.30664062 203.54664063 -178.5390625 204.75390625 C-186.19369077 253.05725017 -173.01541488 304.82146362 -144.68359375 344.4140625 C-140.3760335 350.27365517 -135.6740305 355.76165853 -130.85546875 361.203125 C-130.06011719 362.1209375 -129.26476562 363.03875 -128.4453125 363.984375 C-123.89022699 369.17232831 -119.18941037 373.82789838 -113.85546875 378.203125 C-113.35337891 378.62819336 -112.85128906 379.05326172 -112.33398438 379.49121094 C-71.48442248 414.05440007 -22.05734204 427.30933235 30.8125 423.81640625 C63.21445824 421.06976653 96.113108 408.72479566 122.14453125 389.203125 C122.72702637 388.77177246 123.30952148 388.34041992 123.90966797 387.89599609 C135.59970135 379.17859848 146.97348354 369.59200778 156.14453125 358.203125 C156.97339844 357.20023437 157.80226563 356.19734375 158.65625 355.1640625 C165.60913654 346.63572991 171.59259663 337.69643729 177.14453125 328.203125 C177.50144043 327.59919922 177.85834961 326.99527344 178.22607422 326.37304688 C200.17468755 288.80576319 209.45233855 237.82474951 199.14453125 195.203125 C198.91878418 194.25598633 198.69303711 193.30884766 198.46044922 192.33300781 C185.97089604 141.36016991 155.91834808 97.69822032 111.16357422 69.97607422 C89.36173182 56.81894741 62.06599359 44.203125 36.14453125 44.203125 C36.10328125 43.048125 36.06203125 41.893125 36.01953125 40.703125 C35.25236491 34.68300028 31.85428862 30.60302222 27.40234375 26.66015625 C14.54674383 16.91846831 -0.72760935 20.00983309 -10.515625 32.28515625 Z " fill="#FBFBFD" transform="translate(244.85546875,22.796875)"/>
<path d="M0 0 C0.81577011 -0.00701431 1.63154022 -0.01402863 2.47203064 -0.02125549 C5.09208767 -0.03866622 7.71191848 -0.0451085 10.33203125 -0.046875 C11.67669464 -0.04788712 11.67669464 -0.04788712 13.04852295 -0.04891968 C26.63545523 -0.03266991 39.79259858 0.49146838 53.14453125 3.203125 C54.47460205 3.46053467 54.47460205 3.46053467 55.83154297 3.72314453 C98.66825699 12.14892815 136.7661766 31.83797541 168.93359375 61.21484375 C170.69533208 62.7991632 172.47541912 64.29703498 174.33203125 65.765625 C177.28187083 68.32215264 179.72958399 71.03321984 182.25 74.00390625 C183.51120801 75.46794771 184.80607668 76.90366132 186.1328125 78.30859375 C218.14981913 112.31568854 237.3049142 158.25698681 243.14453125 204.203125 C243.2318602 204.88628281 243.31918915 205.56944061 243.40916443 206.27330017 C244.04174793 211.55007046 244.31687654 216.74632588 244.34765625 222.05859375 C244.35467056 222.87436386 244.36168488 223.69013397 244.36891174 224.53062439 C244.38632247 227.15068142 244.39276475 229.77051223 244.39453125 232.390625 C244.39520599 233.28706726 244.39588074 234.18350952 244.39657593 235.1071167 C244.38032616 248.69404898 243.85618787 261.85119233 241.14453125 275.203125 C240.9729248 276.08983887 240.80131836 276.97655273 240.62451172 277.89013672 C232.4656924 319.36960332 213.58824792 357.18368477 185.47265625 388.70751953 C184.26542137 390.06699028 183.07876657 391.44466684 181.89453125 392.82421875 C178.25750753 397.03663099 174.4948052 400.82875964 170.23828125 404.4140625 C168.81112315 405.63353715 167.41581646 406.89105352 166.05078125 408.1796875 C153.84627176 419.67366048 139.71214915 428.98913266 125.14453125 437.203125 C124.55671875 437.54150391 123.96890625 437.87988281 123.36328125 438.22851562 C112.728856 444.32698537 101.61792953 448.92279406 90.14453125 453.203125 C89.48485352 453.45191406 88.82517578 453.70070313 88.14550781 453.95703125 C76.77272266 458.18932769 65.02661432 460.84588312 53.14453125 463.203125 C52.32259277 463.37118652 51.5006543 463.53924805 50.65380859 463.71240234 C-8.64018648 475.33513345 -71.22884691 459.24476721 -120.85546875 426.203125 C-129.1482229 420.54535093 -136.79482586 414.0443706 -144.37744141 407.48144531 C-145.72307647 406.3176288 -147.07599709 405.16224954 -148.4296875 404.0078125 C-152.65373425 400.35031871 -156.46683782 396.57033523 -160.06640625 392.296875 C-161.2858809 390.8697169 -162.54339727 389.47441021 -163.83203125 388.109375 C-175.32600423 375.90486551 -184.64147641 361.7707429 -192.85546875 347.203125 C-193.19384766 346.6153125 -193.53222656 346.0275 -193.88085938 345.421875 C-199.97932912 334.78744975 -204.57513781 323.67652328 -208.85546875 312.203125 C-209.22865234 311.2136084 -209.22865234 311.2136084 -209.609375 310.20410156 C-213.84167144 298.83131641 -216.49822687 287.08520807 -218.85546875 275.203125 C-219.02353027 274.38118652 -219.1915918 273.55924805 -219.36474609 272.71240234 C-224.43816291 246.83009044 -224.09809734 217.01731668 -218.85546875 191.203125 C-218.59805908 189.8730542 -218.59805908 189.8730542 -218.33544922 188.51611328 C-210.1766299 147.03664668 -191.29918542 109.22256523 -163.18359375 77.69873047 C-161.97635887 76.33925972 -160.78970407 74.96158316 -159.60546875 73.58203125 C-155.96844503 69.36961901 -152.2057427 65.57749036 -147.94921875 61.9921875 C-146.52206065 60.77271285 -145.12675396 59.51519648 -143.76171875 58.2265625 C-109.75659285 26.20118708 -63.8050545 7.04318022 -17.85546875 1.203125 C-17.17231094 1.11579605 -16.48915314 1.0284671 -15.78529358 0.93849182 C-10.50852329 0.30590832 -5.31226787 0.03077971 0 0 Z M-20.85546875 11.203125 C-21.76522461 11.3484668 -22.67498047 11.49380859 -23.61230469 11.64355469 C-61.07970386 17.84889915 -96.01822936 32.66066185 -125.85546875 56.203125 C-126.72042969 56.87472656 -127.58539063 57.54632813 -128.4765625 58.23828125 C-140.77996363 68.0188453 -152.29640905 78.70281616 -161.85546875 91.203125 C-162.72988626 92.28123824 -163.60767334 93.35662466 -164.48828125 94.4296875 C-200.06556247 138.07881021 -217.48495832 196.2225792 -212.34106445 252.25805664 C-212.02127632 255.1527192 -211.62554826 258.03130518 -211.19287109 260.91113281 C-210.95986084 262.49398397 -210.7451709 264.07960213 -210.54541016 265.66699219 C-205.04419075 309.29848721 -184.55890339 350.80059007 -154.890625 382.98046875 C-153.04899241 384.99177191 -151.29460685 387.05132172 -149.54296875 389.140625 C-126.02182174 416.01421135 -92.16153244 434.68891223 -58.85546875 446.203125 C-57.75976562 446.59886719 -56.6640625 446.99460937 -55.53515625 447.40234375 C-25.89406837 457.40127073 7.97306191 460.17998718 38.85253906 455.54052734 C40.43539022 455.30751709 42.02100838 455.09282715 43.60839844 454.89306641 C87.23989346 449.391847 128.74199632 428.90655964 160.921875 399.23828125 C162.93317816 397.39664866 164.99272797 395.6422631 167.08203125 393.890625 C183.17665001 379.75954973 195.58269558 361.67304824 206.14453125 343.203125 C206.54655762 342.50751465 206.94858398 341.8119043 207.36279297 341.09521484 C213.94147079 329.60626616 218.75540704 317.67460293 223.14453125 305.203125 C223.42425781 304.43307129 223.70398438 303.66301758 223.9921875 302.86962891 C235.46623087 271.07350268 238.58602511 234.56771886 233.14453125 201.203125 C232.99918945 200.29336914 232.85384766 199.38361328 232.70410156 198.44628906 C226.49946278 160.98315068 211.69087822 126.03408415 188.14453125 96.203125 C187.46132813 95.3265625 186.778125 94.45 186.07421875 93.546875 C177.42335247 82.69338964 167.97671365 71.93011294 157.14453125 63.203125 C156.09452813 62.31832974 155.04510625 61.4328445 153.99609375 60.546875 C133.67144955 43.60178402 110.55037312 30.95076372 85.66601562 22.11181641 C83.9405769 21.49000357 82.22327787 20.84525876 80.51367188 20.18115234 C73.65571713 17.55078849 66.85693273 15.92326 59.64453125 14.578125 C58.59394531 14.37445313 57.54335938 14.17078125 56.4609375 13.9609375 C53.35767146 13.36253268 50.25182828 12.780198 47.14453125 12.203125 C45.64224976 11.92057861 45.64224976 11.92057861 44.10961914 11.63232422 C22.97715642 7.7059187 0.35577952 7.74374295 -20.85546875 11.203125 Z " fill="#30306E" transform="translate(244.85546875,22.796875)"/>
<path d="M0 0 C1.03125 0.16371094 2.0625 0.32742188 3.125 0.49609375 C9.39649677 1.28003085 15.69083019 1.10580476 22 1.0625 C23.25167969 1.05798828 24.50335938 1.05347656 25.79296875 1.04882812 C28.86202941 1.03711415 31.93098907 1.02071073 35 1 C35.19806244 1.52203506 35.39612488 2.04407013 35.60018921 2.58192444 C44.95354792 27.23272211 54.32095389 51.87803853 63.75 76.5 C64.11695984 77.45866974 64.48391968 78.41733948 64.86199951 79.40505981 C65.57752428 81.27402759 66.29334817 83.14288088 67.00949097 85.01161194 C67.69126583 86.79075892 68.37237721 88.57016032 69.05276489 90.34983826 C70.6973129 94.64296528 72.36281663 98.92601627 74.06835938 103.1953125 C74.39636536 104.02131958 74.72437134 104.84732666 75.06231689 105.69836426 C75.67948281 107.24912253 76.30214038 108.79771119 76.93133545 110.34362793 C78.3159135 113.83096303 79 116.19125589 79 120 C68.80272076 123.38708215 58.53385151 125.91870513 48 128 C46.85660156 128.22945312 45.71320313 128.45890625 44.53515625 128.6953125 C12.9825656 133.92339636 -21.96489167 129.47180528 -51 116 C-47.66742577 106.92611138 -43.88699389 98.16432747 -39.81408691 89.40576172 C-33.28254455 75.34762179 -26.96043791 61.2025683 -20.75 47 C-20.37269745 46.13734528 -19.9953949 45.27469055 -19.60665894 44.38589478 C-18.12080696 40.9882282 -16.63510644 37.59049565 -15.15010071 34.19245911 C-10.15546132 22.77042763 -5.08137095 11.38366975 0 0 Z " fill="#5F96F3" transform="translate(237,308)"/>
<path d="M0 0 C1.07484436 2.00588989 1.07484436 2.00588989 2.07446289 4.69189453 C2.45722885 5.70297272 2.83999481 6.7140509 3.23435974 7.75576782 C3.64299759 8.87019257 4.05163544 9.98461731 4.47265625 11.1328125 C4.90832413 12.292435 5.343992 13.4520575 5.79286194 14.64682007 C6.73449251 17.15741195 7.67187908 19.66913446 8.60235596 22.18383789 C10.06405531 26.13393576 11.54096535 30.07822427 13.02099609 34.02148438 C14.53115258 38.0468923 16.0405053 42.07258665 17.54455566 46.10028076 C21.95852224 57.91872385 26.44723879 69.70784801 30.9682312 81.48577881 C32.10168806 84.43925549 33.23286607 87.39359592 34.36352539 90.34814453 C35.05735497 92.15921779 35.75127857 93.97025504 36.4453125 95.78125 C36.74856949 96.57365082 37.05182648 97.36605164 37.36427307 98.1824646 C37.65414597 98.93758331 37.94401886 99.69270203 38.24267578 100.47070312 C38.52258362 101.20490479 38.80249146 101.93910645 39.09088135 102.69555664 C39.74742508 104.35977048 40.4362983 106.01135431 41.1449585 107.65405273 C41.52106262 108.53585205 41.89716675 109.41765137 42.28466797 110.32617188 C42.63544403 111.12470581 42.98622009 111.92323975 43.34762573 112.74597168 C44.09066019 115.31324139 43.9951298 116.54030747 43 119 C40.99609375 120.640625 40.99609375 120.640625 38.4375 122.25 C31.25684595 127.04737545 25.45322392 132.57796014 21 140 C15.6689285 139.41098648 11.43594265 137.6095339 6.6328125 135.37890625 C5.81775742 135.00749512 5.00270233 134.63608398 4.16294861 134.25341797 C1.48064555 133.02953184 -1.19706706 131.79591488 -3.875 130.5625 C-5.75557036 129.7028839 -7.63651694 128.8440904 -9.51782227 127.98608398 C-13.41261967 126.20939569 -17.30607551 124.42981445 -21.19873047 122.6484375 C-30.09462879 118.58203784 -39.01599928 114.57232621 -47.9375 110.5625 C-49.59962744 109.81465604 -51.26173699 109.06677231 -52.92382812 108.31884766 C-64.02234348 103.32677714 -75.13429292 98.36559917 -86.26147461 93.43774414 C-87.76786499 92.77053345 -87.76786499 92.77053345 -89.3046875 92.08984375 C-90.17077637 91.70691162 -91.03686523 91.32397949 -91.92919922 90.92944336 C-93.29917026 90.31455539 -94.65689677 89.67155161 -96 89 C-85.46821388 52.78642527 -48.24032577 23.17208211 -16.9453125 5.62890625 C-4.05619671 -1.35206557 -4.05619671 -1.35206557 0 0 Z " fill="#F35666" transform="translate(188,89)"/>
<path d="M0 0 C11.09920362 30.64088658 12.95709525 62.99987088 7 95 C6.86078125 95.75812988 6.7215625 96.51625977 6.578125 97.29736328 C4.39293807 108.72659906 0.46378314 119.27939723 -4 130 C-9.14455939 128.41492786 -13.94041991 126.30625308 -18.82421875 124.0703125 C-19.67432022 123.68413757 -20.52442169 123.29796265 -21.40028381 122.90008545 C-23.21929566 122.07347132 -25.03771475 121.24555178 -26.85559082 120.41644287 C-31.6391899 118.2349658 -36.42729845 116.06342424 -41.21484375 113.890625 C-42.1595755 113.46155853 -43.10430725 113.03249207 -44.07766724 112.59042358 C-51.28691469 109.31793096 -58.51057486 106.08026798 -65.75 102.875 C-67.81772129 101.95836255 -69.88542924 101.04169503 -71.953125 100.125 C-73.58024414 99.40376953 -73.58024414 99.40376953 -75.24023438 98.66796875 C-82.45891242 95.46646186 -89.67394902 92.25681142 -96.88586426 89.0401001 C-98.61742054 88.26835884 -100.34943017 87.49763389 -102.08190918 86.72796631 C-104.5036778 85.65194422 -106.92387936 84.57246983 -109.34375 83.4921875 C-110.0736615 83.16879395 -110.803573 82.84540039 -111.55560303 82.51220703 C-114.54962509 81.17187502 -117.26321185 79.82452543 -120 78 C-119.75443359 76.43765625 -119.75443359 76.43765625 -119.50390625 74.84375 C-118.741602 68.74531601 -118.8936759 62.63537364 -118.9375 56.5 C-118.94201172 55.29601562 -118.94652344 54.09203125 -118.95117188 52.8515625 C-118.9628805 49.90098927 -118.97928005 46.95052141 -119 44 C-118.47796494 43.80193756 -117.95592987 43.60387512 -117.41807556 43.39981079 C-92.76727789 34.04645208 -68.12196147 24.67904611 -43.5 15.25 C-42.06199539 14.69956024 -42.06199539 14.69956024 -40.59494019 14.13800049 C-38.72597241 13.42247572 -36.85711912 12.70665183 -34.98838806 11.99050903 C-33.20924108 11.30873417 -31.42983968 10.62762279 -29.65016174 9.94723511 C-25.35703472 8.3026871 -21.07398373 6.63718337 -16.8046875 4.93164062 C-15.56567688 4.43963165 -15.56567688 4.43963165 -14.30163574 3.93768311 C-12.75087747 3.32051719 -11.20228881 2.69785962 -9.65637207 2.06866455 C-6.16903697 0.6840865 -3.80874411 0 0 0 Z " fill="#86D2A1" transform="translate(428,196)"/>
<path d="M0 0 C1.640625 2.00390625 1.640625 2.00390625 3.25 4.5625 C8.04737545 11.74315405 13.57796014 17.54677608 21 22 C20.39825509 25.54050828 19.4587759 28.54381652 17.98046875 31.8125 C17.32860596 33.26595825 17.32860596 33.26595825 16.66357422 34.7487793 C16.17646973 35.82168213 15.68936523 36.89458496 15.1875 38 C14.38143466 39.79387583 13.57540365 41.58776722 12.7701416 43.38200378 C12.17467047 44.70814738 11.57853563 46.0339931 10.98181152 47.35957336 C8.43135891 53.02700511 5.90578666 58.70527592 3.38671875 64.38671875 C2.98212936 65.29908798 2.57753998 66.21145721 2.16069031 67.151474 C1.32384811 69.03861294 0.4870104 70.92575388 -0.349823 72.81289673 C-10.1528015 94.91153403 -20.05473324 116.96508654 -30 139 C-45.82705072 134.04997007 -59.69112895 122.80366423 -72 112 C-72.56187012 111.51112305 -73.12374023 111.02224609 -73.70263672 110.51855469 C-92.95115053 93.67538752 -107.45122362 73.23732164 -118.33984375 50.16015625 C-118.68265381 49.43578369 -119.02546387 48.71141113 -119.37866211 47.96508789 C-120 46 -120 46 -119 43 C-117.16374207 41.99435425 -117.16374207 41.99435425 -114.71948242 41.09326172 C-113.79888031 40.74732468 -112.8782782 40.40138763 -111.92977905 40.04496765 C-110.91525665 39.6769252 -109.90073425 39.30888275 -108.85546875 38.9296875 C-107.79921295 38.53590408 -106.74295715 38.14212067 -105.6546936 37.73640442 C-103.36650933 36.88472987 -101.07638001 36.03826724 -98.78457642 35.19638062 C-93.95115522 33.4208306 -89.12685463 31.62113034 -84.30198669 29.82249451 C-81.83319227 28.90240759 -79.36391813 27.98360687 -76.8941803 27.0660553 C-65.16223831 22.70400531 -53.48125544 18.21538904 -41.8125 13.6875 C-40.05560917 13.00693031 -38.29869259 12.32642709 -36.54174805 11.64599609 C-35.70293594 11.32074951 -34.86412384 10.99550293 -33.99989319 10.66040039 C-32.37119934 10.02925435 -30.74209191 9.39917433 -29.11253357 8.77026367 C-25.03090426 7.19179945 -20.9638964 5.58462677 -16.91162109 3.93212891 C-16.08852951 3.60058304 -15.26543793 3.26903717 -14.41740417 2.92744446 C-12.85531664 2.29732451 -11.29671286 1.65847231 -9.74238586 1.00944519 C-3.74628416 -1.39410158 -3.74628416 -1.39410158 0 0 Z " fill="#FBFBFE" transform="translate(208,281)"/>
<path d="M0 0 C5.19979555 1.49147741 9.51405461 3.81393736 14.125 6.5625 C15.25095581 7.23176514 15.25095581 7.23176514 16.3996582 7.91455078 C35.10748274 19.20523783 51.4772176 33.90775219 65 51 C65.71027344 51.87011719 66.42054688 52.74023438 67.15234375 53.63671875 C90 82.59911844 90 82.59911844 90 95 C77.78718487 99.94489165 65.49547161 104.67300064 53.1875 109.375 C51.12578744 110.16358669 49.06410168 110.95224344 47.00244141 111.7409668 C31.23791171 117.77013005 15.4670173 123.78263666 -0.30786133 129.78466797 C-1.12698502 130.09664124 -1.9461087 130.4086145 -2.79005432 130.7300415 C-4.36582758 131.32915743 -5.9423311 131.92635696 -7.51963806 132.52142334 C-11.00796341 133.84052341 -14.47727231 135.18489016 -17.91699219 136.62646484 C-19.07618164 137.10422363 -20.23537109 137.58198242 -21.4296875 138.07421875 C-22.41952637 138.49662842 -23.40936523 138.91903809 -24.42919922 139.35424805 C-27 140 -27 140 -29.25927734 139.23803711 C-31.41660344 137.70370322 -32.40278785 136.14941109 -33.75 133.875 C-38.2375939 126.83763683 -43.84655721 121.29206567 -51 117 C-50.41465445 111.53441749 -48.48749401 107.16953061 -46.203125 102.24609375 C-45.62584152 100.97914421 -45.62584152 100.97914421 -45.03689575 99.68659973 C-43.78103397 96.93390602 -42.51545676 94.18579406 -41.25 91.4375 C-40.37371504 89.52022069 -39.49823284 87.60257429 -38.62353516 85.68457031 C-36.88154875 81.86580967 -35.13671624 78.04837201 -33.38964844 74.23193359 C-30.35056476 67.58646464 -27.35647927 60.92149605 -24.375 54.25 C-23.88193359 53.14865723 -23.38886719 52.04731445 -22.88085938 50.91259766 C-21.25283898 47.27554188 -19.62625917 43.63784347 -18 40 C-17.27181848 38.37125267 -16.54362782 36.74250943 -15.81542969 35.11376953 C-15.23826706 33.8228389 -15.23826706 33.8228389 -14.64944458 32.50582886 C-13.07238261 28.97862822 -11.49507131 25.45153909 -9.91778564 21.92443848 C-8.76816841 19.35313655 -7.6191542 16.78156581 -6.47021484 14.20996094 C-5.76661776 12.63606047 -5.06300524 11.0621669 -4.359375 9.48828125 C-4.0339975 8.75956314 -3.70862 8.03084503 -3.37338257 7.28004456 C-1.11346586 2.22693172 -1.11346586 2.22693172 0 0 Z " fill="#B89172" transform="translate(334,92)"/>
<path d="M0 0 C11.52147657 4.63967693 22.87744896 9.57740699 34.1762085 14.73443604 C38.7589558 16.82575945 43.34637662 18.90678481 47.93359375 20.98828125 C48.86081238 21.40922058 49.78803101 21.83015991 50.74334717 22.26385498 C59.17643278 26.08845928 67.63206886 29.86114564 76.09710693 33.6144104 C78.34825539 34.61313472 80.59833963 35.61422004 82.84814453 36.6159668 C89.09880567 39.39708112 95.35373848 42.16199965 101.64453125 44.8515625 C102.60117676 45.26583496 103.55782227 45.68010742 104.54345703 46.10693359 C106.23569509 46.83851795 107.93292632 47.55872392 109.63623047 48.26416016 C114.80023347 50.5123779 114.80023347 50.5123779 115.76293945 52.86230469 C116.02589875 55.2335422 115.61241331 56.70601385 115 59 C114.91908908 61.02468711 114.89241101 63.05184619 114.90234375 65.078125 C114.90556641 66.23828125 114.90878906 67.3984375 114.91210938 68.59375 C114.92048828 69.8003125 114.92886719 71.006875 114.9375 72.25 C114.94426758 74.08304688 114.94426758 74.08304688 114.95117188 75.953125 C114.96295185 78.96879946 114.97940147 81.98437498 115 85 C109.84618045 87.65772876 104.74041214 89.98238291 99.296875 91.96875 C98.5614447 92.2417543 97.8260144 92.51475861 97.06829834 92.79603577 C95.46978286 93.38927095 93.87057566 93.98064493 92.27075195 94.57034302 C87.8483125 96.20134511 83.4318851 97.84844643 79.015625 99.49609375 C77.59431274 100.02613258 77.59431274 100.02613258 76.14428711 100.56687927 C61.67755082 105.9744988 47.27850541 111.56039411 32.87011719 117.12109375 C27.81690678 119.07117494 22.7623094 121.01760347 17.70605469 122.95977783 C15.94966143 123.63494497 14.19377109 124.31142244 12.43847656 124.98944092 C10.17957185 125.86113562 7.9183688 126.72653137 5.65625 127.58984375 C4.42712891 128.06156006 3.19800781 128.53327637 1.93164062 129.01928711 C-1 130 -1 130 -4 130 C-6.39810789 122.78016455 -8.44545705 115.54164328 -10.125 108.125 C-10.28323242 107.4438916 -10.44146484 106.7627832 -10.60449219 106.06103516 C-13.32806052 93.69078195 -14.3673318 81.33616269 -14.3125 68.6875 C-14.30976578 67.67627579 -14.30976578 67.67627579 -14.30697632 66.6446228 C-14.25789508 55.81237755 -13.49401398 45.54276859 -11 35 C-10.81775879 34.19030762 -10.63551758 33.38061523 -10.44775391 32.54638672 C-3.98025672 3.98025672 -3.98025672 3.98025672 0 0 Z " fill="#F6D000" transform="translate(88,186)"/>
<path d="M0 0 C4.35559096 0.6572428 8.11804772 2.22766183 12.09765625 4.03515625 C12.79102585 4.34503983 13.48439545 4.6549234 14.19877625 4.97419739 C16.48882995 5.99891703 18.77561264 7.03073574 21.0625 8.0625 C22.68302944 8.78910701 24.30380198 9.51517207 25.92480469 10.24072266 C29.29014427 11.74747274 32.65442573 13.25655127 36.01806641 14.76708984 C40.66685262 16.85294383 45.32207435 18.92398763 49.98046875 20.98828125 C50.7060347 21.30984695 51.43160065 21.63141266 52.17915344 21.96272278 C53.64029165 22.61024715 55.10143767 23.25775391 56.56259155 23.90524292 C76.74590473 32.85323381 96.8744935 41.92292116 117 51 C101.3365554 90.73063847 65.89922373 122.08148435 27.625 139.5625 C24 141 24 141 22 141 C15.759429 125.57021468 9.79357538 110.04673066 3.91226196 94.47698975 C-0.76322025 82.10306733 -5.47433141 69.74646913 -10.30859375 57.43359375 C-11.57017726 54.20368995 -12.83059923 50.97333538 -14.09063721 47.74282837 C-14.90264713 45.67082194 -15.72012303 43.60094898 -16.54315186 41.53329468 C-17.68434313 38.66535673 -18.80688257 35.79075568 -19.92578125 32.9140625 C-20.44137856 31.64102516 -20.44137856 31.64102516 -20.96739197 30.3422699 C-21.41726219 29.17051964 -21.41726219 29.17051964 -21.8762207 27.97509766 C-22.1431221 27.29984039 -22.4100235 26.62458313 -22.68501282 25.92886353 C-23.10790077 23.33925613 -22.40135595 22.17111079 -21 20 C-19.1171875 18.578125 -19.1171875 18.578125 -16.875 17.25 C-9.83763683 12.7624061 -4.29206567 7.15344279 0 0 Z " fill="#D3D5EA" transform="translate(303,283)"/>
<path d="M0 0 C0.4846875 0.95519531 0.969375 1.91039063 1.46875 2.89453125 C7.15717505 13.93322812 13.73082599 23.69717924 22 33 C25.28655365 32.70069914 26.73890516 32.24562602 29.17578125 29.953125 C36.56633132 20.60347117 42.91304321 10.80978318 48 0 C64.26884464 1.60575609 78.80610083 6.11849065 94 12 C89.36032307 23.52147657 84.42259301 34.87744896 79.26556396 46.1762085 C77.17424055 50.7589558 75.09321519 55.34637662 73.01171875 59.93359375 C72.59077942 60.86081238 72.16984009 61.78803101 71.73614502 62.74334717 C67.91155441 71.17640257 64.13902191 79.63205849 60.38586426 88.09710693 C59.38677612 90.34846357 58.38472755 92.59847996 57.38183594 94.84814453 C54.60010346 101.09397593 51.83962317 107.34384461 49.18359375 113.64453125 C48.77383301 114.60117676 48.36407227 115.55782227 47.94189453 116.54345703 C47.21968295 118.23423772 46.51212159 119.9314001 45.82373047 121.63623047 C43.62688262 126.73527249 43.62688262 126.73527249 40.51171875 128.05078125 C38 128 38 128 36.20922852 127.50292969 C33.46949513 126.87923085 30.95032755 126.88800853 28.140625 126.90234375 C27.02558594 126.90556641 25.91054688 126.90878906 24.76171875 126.91210938 C23.02341797 126.92467773 23.02341797 126.92467773 21.25 126.9375 C19.48849609 126.94426758 19.48849609 126.94426758 17.69140625 126.95117188 C14.79421928 126.96294906 11.89713546 126.97939674 9 127 C6.34227124 121.84618045 4.01761709 116.74041214 2.03125 111.296875 C1.7582457 110.5614447 1.48524139 109.8260144 1.20396423 109.06829834 C0.61072905 107.46978286 0.01935507 105.87057566 -0.57034302 104.27075195 C-2.20134511 99.8483125 -3.84844643 95.4318851 -5.49609375 91.015625 C-5.84945297 90.0680835 -6.20281219 89.12054199 -6.56687927 88.14428711 C-11.9744988 73.67755082 -17.56039411 59.27850541 -23.12109375 44.87011719 C-25.07117494 39.81690678 -27.01760347 34.7623094 -28.95977783 29.70605469 C-29.63494497 27.94966143 -30.31142244 26.19377109 -30.98944092 24.43847656 C-31.86113562 22.17957185 -32.72653137 19.9183688 -33.58984375 17.65625 C-34.06156006 16.42712891 -34.53327637 15.19800781 -35.01928711 13.93164062 C-36 11 -36 11 -36 8 C-28.79159168 5.29504838 -21.58512588 3.34222774 -14.0625 1.75 C-13.24612061 1.57500977 -12.42974121 1.40001953 -11.58862305 1.21972656 C-7.66957833 0.41577848 -4.0246187 -0.2276552 0 0 Z " fill="#D2EEFA" transform="translate(232,76)"/>
<path d="M0 0 C10.80493528 6.85493435 19.20286045 17.07353126 22.4453125 29.57421875 C24.20785873 43.07976837 22.00046469 55.50943791 13.94140625 66.68359375 C6.55673575 76.01565778 -2.95399016 81.98145481 -14.5546875 84.57421875 C-29.81032664 85.64211349 -40.67327169 83.33175784 -53.078125 73.8046875 C-61.54280663 66.18113354 -67.03193544 55.04210525 -67.828125 43.66796875 C-68.29457058 28.83402768 -64.67984681 17.83823604 -54.5546875 6.57421875 C-51.42981079 3.78659686 -48.19966773 1.62585236 -44.5546875 -0.42578125 C-43.23210937 -1.18568359 -43.23210937 -1.18568359 -41.8828125 -1.9609375 C-28.73462017 -8.4805522 -12.63484932 -7.05155964 0 0 Z " fill="#FAFAFD" transform="translate(278.5546875,216.42578125)"/>
<path d="M0 0 C17.85649203 7.29840547 17.85649203 7.29840547 26 11 C25.37298365 14.31638328 24.60524092 17.53398608 23.66015625 20.7734375 C20.5845826 31.51822388 18.00029945 41.84081521 17 53 C16.83564453 54.55267578 16.83564453 54.55267578 16.66796875 56.13671875 C14.59539976 78.16121855 17.15897476 99.33661764 21 121 C1.54189944 130 1.54189944 130 -4 130 C-6.39810789 122.78016455 -8.44545705 115.54164328 -10.125 108.125 C-10.28323242 107.4438916 -10.44146484 106.7627832 -10.60449219 106.06103516 C-13.32806052 93.69078195 -14.3673318 81.33616269 -14.3125 68.6875 C-14.30976578 67.67627579 -14.30976578 67.67627579 -14.30697632 66.6446228 C-14.25789508 55.81237755 -13.49401398 45.54276859 -11 35 C-10.81775879 34.19030762 -10.63551758 33.38061523 -10.44775391 32.54638672 C-3.98025672 3.98025672 -3.98025672 3.98025672 0 0 Z " fill="#F7D833" transform="translate(88,186)"/>
<path d="M0 0 C0.9831543 1.79418945 0.9831543 1.79418945 1.82421875 4.11328125 C2.28344727 5.3672168 2.28344727 5.3672168 2.75195312 6.64648438 C3.21504883 7.96616211 3.21504883 7.96616211 3.6875 9.3125 C4.00783203 10.18068359 4.32816406 11.04886719 4.65820312 11.94335938 C6.09162885 15.92577667 7 18.70215743 7 23 C6.15179688 23.46148437 5.30359375 23.92296875 4.4296875 24.3984375 C-27.35755116 41.95832337 -52.2655707 67.36888805 -70 99 C-76.01117092 98.45080664 -80.97766352 95.95138069 -86.375 93.4375 C-87.76525391 92.80038086 -87.76525391 92.80038086 -89.18359375 92.15039062 C-91.45875685 91.10663024 -93.73067035 90.05636818 -96 89 C-85.46821388 52.78642527 -48.24032577 23.17208211 -16.9453125 5.62890625 C-4.05619671 -1.35206557 -4.05619671 -1.35206557 0 0 Z " fill="#F57884" transform="translate(188,89)"/>
<path d="M0 0 C0.4846875 0.95519531 0.969375 1.91039063 1.46875 2.89453125 C7.15717505 13.93322812 13.73082599 23.69717924 22 33 C25.28655365 32.70069914 26.73890516 32.24562602 29.17578125 29.953125 C36.56633132 20.60347117 42.91304321 10.80978318 48 0 C53.94 0.99 53.94 0.99 60 2 C57.62249051 13.88754747 50.49517689 23.72566496 43 33 C42.25492187 33.93714844 41.50984375 34.87429687 40.7421875 35.83984375 C35.70972743 42.09096576 30.42488024 48.08777828 25 54 C9.71833233 47.6586277 -4.70934321 21.8483317 -11.20703125 7.296875 C-12 5 -12 5 -12 2 C-7.84055256 0.69507531 -4.34963091 -0.12019705 0 0 Z " fill="#BCD6E1" transform="translate(232,76)"/>
<path d="M0 0 C4.35699098 2.46622131 7.04335342 5.33670683 9.3125 9.875 C10.93507351 22.04430131 2.89768171 32.57221786 -3.98828125 41.9609375 C-4.54902344 42.59257813 -5.10976563 43.22421875 -5.6875 43.875 C-6.3475 43.875 -7.0075 43.875 -7.6875 43.875 C-9.20761997 41.99005123 -10.58224763 40.12458032 -11.9375 38.125 C-12.33573975 37.53879883 -12.73397949 36.95259766 -13.14428711 36.34863281 C-23.8062821 20.35026743 -23.8062821 20.35026743 -23.14453125 11.83984375 C-21.8648499 6.3383077 -18.12734765 3.02962859 -13.6875 -0.125 C-9.27834252 -2.32957874 -4.50873453 -1.37554613 0 0 Z " fill="#D1D3E9" transform="translate(262.6875,54.125)"/>
<path d="M0 0 C1.07121094 -0.00630432 2.14242187 -0.01260864 3.24609375 -0.019104 C4.40238281 -0.01505554 5.55867187 -0.01100708 6.75 -0.00683594 C8.53083984 -0.00970612 8.53083984 -0.00970612 10.34765625 -0.01263428 C12.85937715 -0.01399611 15.37110509 -0.0102998 17.8828125 -0.00195312 C21.73453533 0.00874611 25.58579173 -0.00184879 29.4375 -0.01464844 C31.87500103 -0.01332684 34.31250177 -0.01076445 36.75 -0.00683594 C37.90628906 -0.0108844 39.06257813 -0.01493286 40.25390625 -0.019104 C41.86072266 -0.00964752 41.86072266 -0.00964752 43.5 0 C44.44359375 0.00159119 45.3871875 0.00318237 46.359375 0.00482178 C48.75 0.25878906 48.75 0.25878906 51.75 2.25878906 C52.125 5.25878906 52.125 5.25878906 51.75 8.25878906 C48.42354368 10.47642661 47.37594056 10.51104211 43.5 10.51757812 C41.89318359 10.52703461 41.89318359 10.52703461 40.25390625 10.53668213 C39.09761719 10.53263367 37.94132812 10.52858521 36.75 10.52441406 C35.56277344 10.52632751 34.37554687 10.52824097 33.15234375 10.5302124 C30.64062285 10.53157424 28.12889491 10.52787793 25.6171875 10.51953125 C21.76546467 10.50883202 17.91420827 10.51942692 14.0625 10.53222656 C11.62499897 10.53090497 9.18749823 10.52834258 6.75 10.52441406 C5.59371094 10.52846252 4.43742188 10.53251099 3.24609375 10.53668213 C2.17488281 10.53037781 1.10367188 10.52407349 0 10.51757812 C-0.94359375 10.51598694 -1.8871875 10.51439575 -2.859375 10.51275635 C-5.25 10.25878906 -5.25 10.25878906 -8.25 8.25878906 C-8.625 5.25878906 -8.625 5.25878906 -8.25 2.25878906 C-4.92354368 0.04115152 -3.87594056 0.00653602 0 0 Z " fill="#40407A" transform="translate(234.25,250.7412109375)"/>
<path d="M0 0 C1.21720482 0.00136711 1.21720482 0.00136711 2.45899963 0.00276184 C3.29250443 -0.00152328 4.12600922 -0.00580841 4.98477173 -0.01022339 C6.74920238 -0.01597126 8.51365674 -0.01646359 10.27809143 -0.01213074 C12.98008121 -0.00897336 15.68097367 -0.03241436 18.38282776 -0.05778503 C20.095717 -0.06005822 21.80860919 -0.06076143 23.52149963 -0.05973816 C24.33094528 -0.06894791 25.14039093 -0.07815765 25.97436523 -0.08764648 C31.6122031 -0.04107892 31.6122031 -0.04107892 33.80960083 1.66275024 C35.05665588 3.30354309 35.05665588 3.30354309 34.80665588 5.92854309 C34.05665588 8.30354309 34.05665588 8.30354309 33.05665588 9.30354309 C30.12299842 9.41707325 27.21377127 9.46773017 24.27931213 9.47151184 C23.39762863 9.47484024 22.51594513 9.47816864 21.60754395 9.4815979 C19.73877994 9.48667093 17.87000684 9.48900611 16.00123596 9.48884583 C13.13479244 9.49103117 10.26873429 9.50917964 7.40235901 9.52815247 C5.59051137 9.53108648 3.7786619 9.53307122 1.96681213 9.53401184 C0.67457481 9.54479012 0.67457481 9.54479012 -0.64376831 9.55578613 C-6.71452252 9.53236469 -6.71452252 9.53236469 -8.94334412 7.30354309 C-8.30820147 0.95211666 -6.15555925 0.07813373 0 0 Z " fill="#373773" transform="translate(242.94334411621094,270.6964569091797)"/>
<path d="M0 0 C0.8816835 -0.0033284 1.763367 -0.0066568 2.67176819 -0.01008606 C4.54053219 -0.01515908 6.40930529 -0.01749427 8.27807617 -0.01733398 C11.14451969 -0.01951933 14.01057785 -0.0376678 16.87695312 -0.05664062 C18.68880076 -0.05957464 20.50065023 -0.06155938 22.3125 -0.0625 C23.60473732 -0.07327827 23.60473732 -0.07327827 24.92308044 -0.08427429 C30.99383465 -0.06085285 30.99383465 -0.06085285 33.22265625 2.16796875 C32.89294146 5.46511668 32.59997235 6.79065265 30.22265625 9.16796875 C27.38900017 9.38016758 24.65557604 9.47193444 21.8203125 9.46875 C20.98680771 9.47303513 20.15330292 9.47732025 19.29454041 9.48173523 C17.53010975 9.4874831 15.7656554 9.48797543 14.0012207 9.48364258 C11.29923092 9.4804852 8.59833847 9.5039262 5.89648438 9.52929688 C4.18359513 9.53157006 2.47070294 9.53227328 0.7578125 9.53125 C-0.45635597 9.54506462 -0.45635597 9.54506462 -1.6950531 9.55915833 C-7.33289096 9.51259076 -7.33289096 9.51259076 -9.5302887 7.8087616 C-10.77734375 6.16796875 -10.77734375 6.16796875 -10.52734375 3.54296875 C-8.92510266 -1.5307947 -4.58362971 0.00590698 0 0 Z " fill="#373773" transform="translate(244.77734375,231.83203125)"/>
</svg>
